<svg xmlns="http://www.w3.org/2000/svg" xmlns:xlink="http://www.w3.org/1999/xlink" version="1.1" x="0px" y="0px" viewBox="0 0 40 50" enable-background="new 0 0 40 40" xml:space="preserve"><path fill-rule="evenodd" clip-rule="evenodd" fill="#000000" d="M33,22.1c-0.4,0-0.9-0.1-1.3-0.1v-2.1H29V22  c-2.8,0.1-5.4,0.6-7.7,1.6c0-0.9,0.1-1.6,0.5-2.1c0.7-0.9,2.2-1.7,5-2.8c0.5-0.2,0.9-0.5,1.3-0.8c1.4-1.1,2-2.9,2-4.7  c0-1.8-0.4-3.6-1-5.3c-0.4-1.1-1-2.1-1.6-2.8c-0.9-1-1.8-1.8-2.9-2.2c-1.1-0.5-2.3-0.6-3.3-0.4c-1.1,0.2-2.1,0.7-3,1.4  c-0.9,0.7-1.6,1.7-2.1,2.9l0.2,0.1L9.1,29.1L8.7,29l-1.2,3.7l-5.4,1.4v1.8h8v-1.8l-0.6-0.4l1.3-4l-0.4-0.1l7.3-22.1l0.3,0.1  c0.4-0.9,0.9-1.6,1.6-2.2c0.6-0.5,1.3-0.9,2.1-1c0.7-0.1,1.5,0,2.3,0.3C24.6,5,25.4,5.5,26,6.3c0.5,0.6,0.9,1.4,1.3,2.3  c0.6,1.4,0.9,3,0.9,4.5c0,1.4-0.4,2.6-1.3,3.3c-0.2,0.2-0.5,0.4-0.8,0.5c-3.2,1.3-4.9,2.2-5.8,3.5c-0.8,1.1-0.9,2.3-0.8,4.1  c-2.8,1.6-5.2,3.9-7,7.2l1.2,3.5h12.1c-0.9-1-1.4-2.3-1.4-3.7c0-3.1,2.6-5.7,5.7-5.7c1.1,0,2.1,0.3,2.9,0.8V22.1L33,22.1z M30.1,27  c2.5,0,4.5,2,4.5,4.5c0,2.5-2,4.5-4.5,4.5s-4.5-2-4.5-4.5C25.6,29,27.6,27,30.1,27L30.1,27z M30.1,29.7c0.9,0,1.7,0.8,1.7,1.7  c0,0.9-0.8,1.7-1.7,1.7c-0.9,0-1.7-0.8-1.7-1.7C28.4,30.5,29.1,29.7,30.1,29.7z"/><text x="0" y="55" fill="#000000" font-size="5px" font-weight="bold" font-family="'Helvetica Neue', Helvetica, Arial-Unicode, Arial, Sans-serif">Created by marshmallow_cat</text><text x="0" y="60" fill="#000000" font-size="5px" font-weight="bold" font-family="'Helvetica Neue', Helvetica, Arial-Unicode, Arial, Sans-serif">from the Noun Project</text></svg>