<?xml version="1.0" encoding="utf-8"?>
<!-- Generator: Adobe Illustrator 27.5.0, SVG Export Plug-In . SVG Version: 6.00 Build 0)  -->
<svg version="1.1" id="_x31_" xmlns="http://www.w3.org/2000/svg" xmlns:xlink="http://www.w3.org/1999/xlink" x="0px" y="0px"
	 viewBox="0 0 499 380" style="enable-background:new 0 0 499 380;" xml:space="preserve">
<g>
	<path style="fill:#F7BA57;" d="M145.647,130.926c14.835-0.038,34.707,3.903,34.707,3.903l31.253,3.308l-0.255-13.323
		l-31.663-10.329l-40.187-11.571L145.647,130.926z"/>
	<path style="fill:#F2A446;" d="M177.391,124.356c0,0-18.615-8.987-34.846-10.605l3.102,17.175
		c14.835-0.038,34.707,3.903,34.707,3.903l31.253,3.308l-0.146-7.626L177.391,124.356z"/>
	<g>
		<g>
			<path style="fill:#A09A48;" d="M414.232,211.496c-2.758-12.889-6.263-25.948-9.354-37.469c-5.436-20.26-9.73-36.263-8.454-44.156
				l1.23,0.198c-1.234,7.63,3.243,24.316,8.427,43.635c3.096,11.536,6.603,24.61,9.367,37.532L414.232,211.496z"/>
		</g>
		<g>
			<path style="fill:#A09A48;" d="M409.283,186.493l-1.221-0.244c5.848-29.322,26.594-47.2,26.802-47.377l0.805,0.949
				C435.465,139.995,415.044,157.61,409.283,186.493z"/>
		</g>
		<g>
			<path style="fill:#A09A48;" d="M406.324,178.796c-0.09-0.153-9.112-15.408-23.001-26.021l0.74-0.928
				c14.102,10.774,23.246,26.243,23.336,26.398L406.324,178.796z"/>
		</g>
		<g>
			<path style="fill:#A09A48;" d="M396.666,139.077c-8.05-29.66-15.542-33.511-15.617-33.546l0.534-1.125
				c0.325,0.154,8.085,4.136,16.285,34.345L396.666,139.077z"/>
		</g>
		<g>
			<path style="fill:#A09A48;" d="M396.724,134.159l-1.218-0.263c5.983-27.674,20.518-39.84,20.663-39.958l0.79,0.963
				C416.817,95.018,402.608,106.94,396.724,134.159z"/>
		</g>
		<path style="fill:#A09A48;" d="M373.456,139.266c-7.74,0.591,5.27,14.425,26.091,29.537l0.612-1.572
			C396.286,143.873,385.059,138.38,373.456,139.266z"/>
		<path style="fill:#A09A48;" d="M418.056,88.875c-2.308,0.521-19.182,20.343-21.007,38.13l0.738,2.11
			c12.507-15.029,21.241-24.615,22.552-30.79C421.651,92.15,420.365,88.354,418.056,88.875z"/>
		<path style="fill:#A09A48;" d="M444.321,136.631c-4.936-5.828-20.236,6.585-26.36,22.935l-3.099,9.004
			c5.938-7.425,26.667-11.079,31.818-14.798C451.83,150.051,449.257,142.458,444.321,136.631z"/>
		<path style="fill:#A09A48;" d="M393.56,128.777c0.041-19.735-6.282-27.078-15.631-27.076c-9.349,0.002,5.793,5.242,9.952,14.567
			C392.038,125.594,393.56,128.777,393.56,128.777z"/>
		<path style="fill:#B5AA48;" d="M422.897,149.857c4.718,2.712,11.592,4.421,19.25,4.421c1.363,0,2.7-0.055,4.006-0.159
			c0.19-0.116,0.366-0.232,0.526-0.348c5.151-3.72,2.578-11.313-2.359-17.141C440.429,132.036,430.097,138.784,422.897,149.857z"/>
		<path style="fill:#B5AA48;" d="M387.9,142.739c-4.352-3.025-9.362-3.861-14.444-3.473c-6.934,0.529,2.791,11.688,19.86,24.871
			c2.048-4.961,0.28-13.2-4.936-20.744C388.224,143.168,388.059,142.959,387.9,142.739z"/>
		<path style="fill:#B5AA48;" d="M418.056,88.875c-0.038,0.009-0.091,0.037-0.138,0.056c-0.517,0.354-1.028,0.742-1.53,1.172
			c-1.022,0.958-2.377,2.435-3.906,4.324c-1.897,2.671-3.505,5.913-4.613,9.552c-1.57,5.155-1.863,10.207-1.093,14.406
			c7.58-9.083,12.596-15.504,13.564-20.059C421.651,92.15,420.365,88.354,418.056,88.875z"/>
		<path style="fill:#B5AA48;" d="M387.279,115.091c1.544-1.59,2.41-3.765,2.597-6.211c-2.758-5.047-6.913-7.181-11.947-7.179
			C368.981,101.703,382.458,106.506,387.279,115.091z"/>
		<path style="fill:#A09A48;" d="M421.316,158.255l1.136,0.947c2.841-5.492,18.37-17.991,18.37-17.991
			S431.353,144.998,421.316,158.255z"/>
		<path style="fill:#A09A48;" d="M403.332,115.957l1.076,0.552c1.281-4.892,11.427-17.654,11.427-17.654
			S408.96,103.577,403.332,115.957z"/>
		<path style="fill:#A09A48;" d="M396.875,161.415l-0.716,1.007c-3.445-5.839-18.591-19.128-18.591-19.128
			S385.996,147.321,396.875,161.415z"/>
	</g>
	<path style="fill:#7F3C44;" d="M412.925,200.942c0,0-4.491,2.86-8.791,12.153l24.396,0.715
		C425.364,205.469,412.925,200.942,412.925,200.942z"/>
	<path style="fill:#C1A78A;" d="M433.097,209.584c-20.6-4.284-32.794,0-32.794,0s-1.712,12.32,6.382,23.113h20.133
		C433.357,222.424,433.097,209.584,433.097,209.584z"/>
	<path style="fill:#E0C7AD;" d="M433.097,209.584c-10.472-2.178-18.765-2.14-24.395-1.578c-0.047,0.674-0.075,1.355-0.075,2.045
		c0,11.767,6.953,21.305,15.529,21.305c1.331,0,2.616-0.255,3.849-0.687C433.323,220.812,433.097,209.584,433.097,209.584z"/>
	<g>
		<polygon style="fill:#BCA7A7;" points="428.271,238.302 423.083,238.302 428.531,312.554 430.088,312.554 		"/>
		<polygon style="fill:#BCA7A7;" points="394.959,238.302 400.148,238.302 395.218,312.554 393.662,312.554 		"/>
		<path style="fill:#DBC8C8;" d="M440.362,233.632c-16.063-2.324-31.946-2.38-47.634,0v6.538h47.634V233.632z"/>
		<polygon style="fill:#DBC8C8;" points="438.442,238.302 433.253,238.302 438.701,312.554 440.258,312.554 		"/>
		<polygon style="fill:#DBC8C8;" points="405.129,238.302 410.318,238.302 405.389,312.554 403.832,312.554 		"/>
		<path style="fill:#BCA7A7;" d="M408.059,232.105c-5.13,0.265-10.242,0.754-15.331,1.526v6.538h15.331V232.105z"/>
	</g>
	<rect x="137.436" y="299.478" style="fill:#49363D;" width="265.566" height="13.076"/>
	<path style="fill:#EFDFDF;" d="M208.41,140.551c-3.337-13.632-2.282-18.468-2.282-18.468l8.653,3.245
		c0,0,11.109,2.023,13.619,3.436c2.51,1.413,7.132,7.808,7.132,7.808l-16.662,0.005L208.41,140.551z"/>
	<path style="fill:#D6BDBD;" d="M218.239,135.577c-7.382-1.566-9.865-6.896-12.259-10.364c0.069,2.81,0.558,7.688,2.431,15.339
		l10.46-3.974l16.662-0.005c0,0-0.771-1.065-1.848-2.417C230.32,134.662,222.643,136.51,218.239,135.577z"/>
	<path style="fill:#8758AF;" d="M348.622,249.82H135.671l-1.998-72.73c-0.611-22.237,17.249-40.594,39.494-40.594H283.2
		c25.82,0,48.444,17.588,54.483,42.692C343.239,202.285,347.084,225.782,348.622,249.82z"/>
	<g>
		<path style="fill:#744C9E;" d="M298.049,161.711c-0.416-2.15-1.653-3.893-2.763-3.893c-1.11,0-1.672,1.743-1.256,3.893
			c0.416,2.15,1.653,3.893,2.763,3.893C297.903,165.605,298.465,163.862,298.049,161.711z"/>
		<path style="fill:#744C9E;" d="M311.684,219.946c-0.416-2.15-1.653-3.894-2.763-3.894c-1.11,0-1.672,1.743-1.256,3.894
			c0.416,2.15,1.653,3.894,2.763,3.894C311.538,223.84,312.1,222.097,311.684,219.946z"/>
		<path style="fill:#744C9E;" d="M251.177,161.711c-0.416-2.15-1.653-3.893-2.763-3.893s-1.672,1.743-1.256,3.893
			c0.416,2.15,1.653,3.893,2.763,3.893C251.031,165.605,251.593,163.862,251.177,161.711z"/>
		<path style="fill:#744C9E;" d="M264.812,219.946c-0.416-2.15-1.653-3.894-2.763-3.894c-1.11,0-1.672,1.743-1.256,3.894
			c0.416,2.15,1.653,3.894,2.763,3.894C264.666,223.84,265.228,222.097,264.812,219.946z"/>
		<path style="fill:#744C9E;" d="M281.004,191.965c-0.416-2.15-1.653-3.893-2.763-3.893c-1.11,0-1.672,1.743-1.256,3.893
			c0.416,2.15,1.653,3.893,2.763,3.893C280.858,195.859,281.421,194.115,281.004,191.965z"/>
		<path style="fill:#744C9E;" d="M198.339,161.711c-0.416-2.15-1.653-3.893-2.763-3.893c-1.11,0-1.672,1.743-1.256,3.893
			c0.416,2.15,1.653,3.893,2.763,3.893C198.193,165.605,198.755,163.862,198.339,161.711z"/>
		<path style="fill:#744C9E;" d="M211.975,219.946c-0.416-2.15-1.653-3.894-2.763-3.894c-1.11,0-1.672,1.743-1.256,3.894
			c0.416,2.15,1.653,3.894,2.763,3.894C211.828,223.84,212.391,222.097,211.975,219.946z"/>
		<path style="fill:#744C9E;" d="M228.167,191.965c-0.416-2.15-1.653-3.893-2.763-3.893c-1.11,0-1.672,1.743-1.256,3.893
			c0.416,2.15,1.653,3.893,2.763,3.893C228.021,195.859,228.583,194.115,228.167,191.965z"/>
	</g>
	<path style="fill:#744C9E;" d="M234.395,136.496h-61.228c-12.461,0-23.543,5.762-30.776,14.738
		C153.071,153.692,227.331,144.294,234.395,136.496z"/>
	<path style="fill:#744C9E;" d="M254.151,226.58c-56.55-18.376-95.135-55.61-86.181-83.166c0.797-2.452,1.95-4.742,3.417-6.871
		c-21.409,0.949-38.308,18.908-37.714,40.548l1.998,72.73h212.951c-0.384-6.01-0.913-11.986-1.577-17.93
		C324.335,239.494,289.936,238.208,254.151,226.58z"/>
	<path style="fill:#99476C;" d="M70.339,286.092l6.871-0.039c0,0-2.784,9.23-3.421,16.836l-6.063,0.394
		C70.782,298.783,70.339,286.092,70.339,286.092z"/>
	<path style="fill:#99476C;" d="M109.11,285.132l-6.727,1.992c0,0,1.053,8.885,0.297,16.699l5.871-1.379
		C106.372,298.613,109.11,285.132,109.11,285.132z"/>
	<path style="fill:#F4DEBA;" d="M49.5,312.554H75c0,0,1.29-11.098-3.266-12.832c-4.555-1.734-4.289,6.936-15.219,8.15
		C53.123,308.249,49.727,311.341,49.5,312.554z"/>
	<path style="fill:#F4DEBA;" d="M124.148,312.554H98.329c0,0,1.745-9.805,6.834-11.337c5.089-1.532,2.435,6.128,13.169,7.2
		C121.664,308.751,124.252,311.482,124.148,312.554z"/>
	<path style="fill:#5C8EBC;" d="M98.381,173.146c-4.974,20.229-0.531,125.631-0.531,125.631l14.582-2.651
		c0,0,13.541-109.936,16.808-126.413L98.381,173.146z"/>
	<path style="fill:#3F7099;" d="M111.676,172.08l-13.294,1.066c-4.974,20.229-0.531,125.631-0.531,125.631l5.501-1
		C100.661,283.148,105.152,185.256,111.676,172.08z"/>
	<path style="fill:#5C8EBC;" d="M64.52,290.444l16.097,3.788c0,0,12.31-82.003,16.991-99.237l8.731-0.398
		c5.06-15.263,14.092-24.791,22.594-23.084c0,0,5.595-26.261,20.518-44.169c0,0,0.11-19.455-2.542-22.108
		c-2.653-2.653-28.299-12.712-43.221,3.537c-14.923,16.25-29.183,48.558-33.162,65.661C62.436,209.199,64.52,290.444,64.52,290.444z
		"/>
	<path style="fill:#5385AA;" d="M146.909,105.235c-2.653-2.653-28.299-12.712-43.221,3.537
		c-12.918,14.066-25.334,40.16-31.019,58.014c13.659,1.249,30.285-2.365,46.214-11.05
		C127.89,150.824,149.562,107.888,146.909,105.235z"/>
	<path style="fill:#3F7099;" d="M103.687,108.772c-14.923,16.25-29.183,48.558-33.162,65.661
		c-8.089,34.765-6.006,116.01-6.006,116.01l3.976,0.936c-0.9-19.361,0.352-42.702,4.057-67.564
		c7.204-48.335,23.793-62.739,30.422-75.807c-0.009-0.382,4.536-14.082,4.536-14.469c0-12.394,4.663-22.442,10.416-22.442
		c2.605,0,4.98,2.074,6.807,5.479c3.717-7.932,9.59-13.055,16.203-13.055c1.726,0,3.401,0.352,5.001,1.008
		C140.491,101.229,117.502,93.73,103.687,108.772z"/>
	<path style="fill:#EF9348;" d="M91.196,161.39c-10.17-5.527-10.391-10.17-10.391-10.17s21.573-48.42,32.057-47.754
		C128.908,104.486,98.458,164.686,91.196,161.39z"/>
	<path style="fill:#F7BA57;" d="M143.758,103.743c3.979,11.607,0.4,24.854-6.577,35.87l-20.892-10.114
		c0,0,8.456-17.521,2.653-27.138C126.101,99.485,134.487,101.356,143.758,103.743z"/>
	<path style="fill:#EF9348;" d="M118.942,102.361c3.411,5.652,1.896,14.031,0.067,19.982c1.257,0.076,2.537,0.119,3.84,0.119
		c9.066,0,17.14-1.902,22.38-4.866c0.462-4.714,0.055-9.404-1.471-13.853C134.487,101.356,126.101,99.485,118.942,102.361z"/>
	<path style="fill:#F7BA57;" d="M150.778,170.454c5.749-7.149,7.499-13.787,7.499-13.787l-27.063-16.17
		c0,0-13.057-32.814-15.042-35.404c-4.069-5.309-12.069,2.144-16,9.463c-3.932,7.319,4.261,31.7,16.07,44.325
		C117.992,160.752,150.778,170.454,150.778,170.454z"/>
	<path style="fill:#F2A446;" d="M126.278,154.713c-11.808-12.624-20.002-37.005-16.07-44.325c1.229-2.288,2.856-4.59,4.637-6.51
		c-4.297-2.606-11.134,4.087-14.674,10.677c-3.932,7.319,4.261,31.7,16.07,44.325c1.751,1.872,34.537,11.574,34.537,11.574
		c1.676-2.084,3.003-4.118,4.055-5.964C145.291,161.594,127.554,156.077,126.278,154.713z"/>
	<path style="fill:#DD704A;" d="M125.022,103.356c5.417-4.753,4.311-14.923,4.311-14.923l16.139,3.758
		c-0.326,4.811-1.376,10.147-2.874,15.807c0,0-2.677,7.41-6.964,7.075C128.559,114.52,125.022,103.356,125.022,103.356z"/>
	<path style="fill:#E5DDCF;" d="M124.364,101.156l3.03-0.473c0,0,5.113,12.783,9.564,11.931c4.45-0.852,6.25-7.007,6.25-7.007
		l0.758,0.379c0,0-0.284,9.09-3.03,13.067l-3.788-3.03l-5.303,3.03C131.845,119.053,125.501,113.94,124.364,101.156z"/>
	<path style="fill:#FFA77B;" d="M130.328,83.679c-0.221,2.763-1.769,17.576-0.884,18.681c0.884,1.105,8.291,6.964,11.386,6.854
		c3.095-0.111,6.19-3.427,6.964-5.417c0.774-1.99,4.898-15.822,5.195-18.902C153.503,79.554,130.69,82.1,130.328,83.679z"/>
	<path style="fill:#662828;" d="M128.891,96.613c-3.316-9.175-2.1-13.486-2.1-13.486l7.406-2.542
		c-0.787,3.354-0.77,5.848-2.045,9.396c-0.176,0.49-1.693-0.715-1.879-0.221C129.75,91.145,129.497,95.193,128.891,96.613z"/>
	<path style="fill:#F4DEBA;" d="M149.23,69.777c-5.306-6.172-22.219,1.692-22.993,3.21c-0.774,1.518-1.437,3.593,0.332,12.504
		c7.417-2.705,15.935-5.654,25.867-0.779C152.436,84.712,154.536,75.949,149.23,69.777z"/>
	<path style="fill:#E5C595;" d="M134.43,73.768c0.7-2.708,2.71-4.813,5.425-6.092c-6.326,0.925-13.133,4.361-13.617,5.311
		c-0.774,1.518-1.437,3.593,0.332,12.504c3.204-1.169,6.615-2.38,10.256-2.989C134.639,79.903,133.654,76.77,134.43,73.768z"/>
	<path style="fill:#AA445A;" d="M166.475,80.474c-5.527-4.422-25.369-2.321-36.479,3.814c7.848-2.432,24.872-4.035,21.998,5.472
		C163.048,87.659,172.002,84.896,166.475,80.474z"/>
	<path style="fill:#FFA77B;" d="M150.807,87.923l5.255,1.349c0,0-0.284,6.96-2.059,7.741c-1.775,0.781-5.042-0.213-5.042-0.213
		L150.807,87.923z"/>
	<g>
		<polygon style="fill:#7C4C4C;" points="156.805,89.843 137.594,85.362 128.189,86.565 128.045,85.438 137.652,84.208 
			157.062,88.735 		"/>
	</g>
	<g>
		<path style="fill:#7C4C4C;" d="M141.392,95.642c-1.609,0-3.093-0.444-4.051-1.019c-0.78-0.468-1.269-1.034-1.415-1.637
			c-0.359-1.495,1.159-7.218,1.467-8.35l1.096,0.297c-0.684,2.513-1.685,6.85-1.458,7.786c0.069,0.286,0.403,0.634,0.894,0.929
			c1.156,0.692,3.223,1.162,5.236,0.637c0.646-0.186,1.826-3.736,2.525-7.595l1.118,0.202c-0.435,2.405-1.632,8.045-3.358,8.493
			C142.759,95.564,142.065,95.642,141.392,95.642z"/>
	</g>
	<g>
		<path style="fill:#7C4C4C;" d="M151.746,97.981c-1.45,0-2.734-0.41-3.554-0.877c-0.827-0.471-1.346-1.06-1.502-1.701
			c-0.366-1.496,0.965-7.321,1.236-8.472l1.105,0.26c-0.601,2.566-1.47,6.991-1.238,7.944c0.078,0.315,0.437,0.682,0.962,0.982
			c1.094,0.625,3.007,1.01,4.81,0.462c0.609-0.263,1.656-3.887,2.237-7.753l1.123,0.169c-0.366,2.442-1.396,8.175-3.029,8.672
			C153.163,97.888,152.435,97.981,151.746,97.981z"/>
	</g>
	<path style="fill:#DD704A;" d="M147.655,87.908c0,0,1.658,10.28,0.663,11.275c-0.995,0.995-5.085,0-5.085,0L147.655,87.908z"/>
	<path style="fill:#FFA77B;" d="M147.149,89.047c0,0,1.376,8.53,0.55,9.355c-0.826,0.826-4.219,0-4.219,0L147.149,89.047z"/>
	<path style="fill:#EFDFDF;" d="M224.139,143.194c2.528,4.211,4.89,1.703,4.274,0.022c-1.331-3.631-4.59-4.17-3.4-7.848
		c0.664-2.052,0.045-5.524-4.291-6.339c-4.336-0.815-9.958,1.363-6.875,4.467C216.93,136.601,222.116,139.825,224.139,143.194z"/>
	<path style="fill:#513F46;" d="M194.909,172.337l4.386,4.021c1.358,1.244,3.45,1.216,4.773-0.065l6.59-6.377
		c1.482-1.435,1.399-3.836-0.179-5.164l-4.232-3.564L194.909,172.337z"/>
	<path style="fill:#352A2F;" d="M204.852,172.526l6.579-6.469c-0.206-0.487-0.516-0.939-0.952-1.306l-4.232-3.564l-11.338,11.149
		l4.386,4.021c1.358,1.244,3.45,1.216,4.773-0.065l2.38-2.303L204.852,172.526z"/>
	<path style="fill:#685159;" d="M155.752,178.247l11.441,7.296l24.706-11.441l2.579,2.21c1.166,1,2.905,0.938,3.997-0.143
		l11.874-11.752c1.226-1.214,1.155-3.216-0.155-4.339l-23.103-19.802l-12.104,1.161l-5.638,5.472l2.487,13.431L155.752,178.247z"/>
	<path style="fill:#513F46;" d="M190.506,167.515c-8.279-8.676-13.633-18.288-15.186-26.109l-0.333,0.032l-5.638,5.472l2.487,13.431
		l-16.084,17.908l11.441,7.296l24.706-11.441l2.579,2.21c1.166,1,2.905,0.938,3.997-0.143l0.807-0.799
		C196.302,173.113,193.341,170.486,190.506,167.515z"/>
	<polygon style="fill:#352A2F;" points="174.456,162.516 184.02,171.796 168.585,180.697 161.483,176.909 	"/>
	<path style="fill:#EFDFDF;" d="M142.545,169.05c3.814-11.773,8.996-17.992,8.996-17.992l11.01,7.789l8.456-2.819l0.829,4.311
		c0,0,7.733,6.649,8.396,8.805c0.663,2.155-0.829,5.14-2.156,4.808c-1.326-0.332-2.653-0.829-2.653-0.829s-5.743,6.616-10.386,5.289
		c-4.643-1.326-10.446-5.306-10.446-5.306L142.545,169.05z"/>
	<path style="fill:#D6BDBD;" d="M180.232,169.145c-0.663-2.156-8.396-8.805-8.396-8.805l-0.829-4.311l-5.65,1.883
		c-0.37,1.84-1.176,3.47-2.473,4.735c-3.941,3.841-11.078,3.19-17.449-1.09c-0.982,2.175-1.975,4.67-2.889,7.493l12.046,4.057
		c0,0,5.803,3.979,10.446,5.306c4.643,1.327,10.386-5.289,10.386-5.289s1.327,0.497,2.653,0.829
		C179.403,174.285,180.895,171.3,180.232,169.145z"/>
	<path style="fill:#FFA77B;" d="M131.606,90.548c-1.629-5.088-2.195-7.381-4.384-6.747c-2.189,0.634-1.741,7.253,0.804,8.331
		C130.571,93.209,131.606,90.548,131.606,90.548z"/>
	<path style="fill:#C64A4A;" d="M130.453,90.163c-1.048-3.273-1.412-4.748-2.82-4.34c-1.408,0.408-1.12,4.666,0.517,5.359
		C129.787,91.875,130.453,90.163,130.453,90.163z"/>
	<path style="fill:#FFA77B;" d="M130.768,89.99c-0.685-2.139-0.923-3.103-1.843-2.836c-0.92,0.266-0.732,3.049,0.338,3.502
		C130.333,91.108,130.768,89.99,130.768,89.99z"/>
	<path style="fill:#684191;" d="M333.289,197.931c-0.019-0.001-0.039,0.001-0.058,0.001c-14.635-0.285-17.6,102.181-17.6,102.181
		h5.678h20.431h19.886l6.567-102.182H333.289z"/>
	<path style="fill:#73469B;" d="M333.86,196.583c-0.02-0.001-0.039,0.001-0.058,0.001c-14.683-0.311-0.561,111.768-0.561,111.768
		h5.678h20.431h19.886l2.179-111.768H333.86z"/>
	<path style="fill:#915CB7;" d="M371.453,308.351h-171.44v-64.757h155.305C364.24,264.594,370.307,286.066,371.453,308.351z"/>
	<path style="fill:#8758AF;" d="M300.221,297.747c-50.337-11.095-89.189-34.065-94.035-54.153h-6.172v64.757h171.44
		c-0.094-1.824-0.232-3.64-0.391-5.453C351.495,305.09,326.605,303.563,300.221,297.747z"/>
	<path style="fill:#73469B;" d="M219.316,308.351h-26.152l-8.614-64.757h23.69C212.395,264.594,216.177,286.066,219.316,308.351z"/>
	<path style="fill:#915CB7;" d="M375.189,308.351h37.671c0,0-7.161-111.456-32.69-111.768
		C354.641,196.272,375.189,308.351,375.189,308.351z"/>
	<path style="fill:#684191;" d="M135.023,196.583c-0.02-0.001-0.038,0.001-0.058,0.001c-14.683-0.311-0.561,111.768-0.561,111.768
		h5.678h20.431h19.886l2.179-111.768H135.023z"/>
	<path style="fill:#915CB7;" d="M176.352,308.351h37.671c0,0-7.161-111.456-32.69-111.768
		C155.804,196.272,176.352,308.351,176.352,308.351z"/>
	<g>
		<g>
			<path style="fill:#EFDFDF;" d="M229.034,214.007c-1.853-7.272-9.316-2.111-9.31,3.398c0.008,7.273,8.191,17.285,16.181,14.9
				c9.663-2.885,6.27-17.214,2.744-23.446c-2.935-5.189-7.226-9.402-11.597-13.385c-4.901-4.465-14.127-8.488-15.287-15.44
				c-0.13-0.777-1.132-0.555-0.978,0.369c1.052,6.3,6.57,10.282,11.055,14.324c5.663,5.103,11.484,10.322,14.715,17.386
				c2.081,4.55,5.148,21.467-4.139,18.22c-3.399-1.188-6.582-5.05-8.066-8.156c-0.709-1.484-1.223-3.175-1.334-4.823
				c-0.127-1.889,1.779-6.176,2.725-2.467C225.952,215.715,229.251,214.861,229.034,214.007z"/>
		</g>
		<g>
			<path style="fill:#EFDFDF;" d="M255.287,191.717c-1.472-10.406,13.316-5.552,17.549-2.109c3.478,2.829,5.815,6.896,6.778,11.25
				c0.897,4.057,0.76,8.757-1.295,12.455c-3.888,6.996-13.239,4.45-18.916,1.596c-15.19-7.635-22.779-24.339-36.197-34.227
				c-0.758-0.558-1.664-0.29-1.121,0.11c11.901,8.771,17.013,23.456,29.017,32.076c7.387,5.305,20.089,10.086,28.005,3.014
				c9.353-8.356,2.922-24.737-6.722-29.722c-5.836-3.017-21.904-4.249-20.392,6.44C252.096,193.315,255.415,192.623,255.287,191.717
				z"/>
		</g>
		<g>
			<path style="fill:#EFDFDF;" d="M287.361,222.102c-1.721-2.87,0.285-4.287,6.015-4.252c1.214,0.632,2.209,1.527,2.986,2.684
				c1.558,2.5,0.997,5.367-0.198,7.918c-3.783,8.072-14.072,10.873-21.98,7.78c-9.302-3.639-19.307-10.718-25.111-18.605
				c-0.566-0.769-1.493-0.22-1.274,0.077c10.069,13.681,28.209,28.403,45.178,17.045c6.063-4.058,12.249-15.23,2.103-18.597
				c-4.249-1.41-13.628,0.669-11.011,6.832C284.385,223.732,287.594,222.651,287.361,222.102z"/>
		</g>
	</g>
	<g>
		<g>
			
				<rect x="238.658" y="183.222" transform="matrix(0.9022 0.4313 -0.4313 0.9022 102.8009 -85.2605)" style="fill:#EFDFDF;" width="1.492" height="1.658"/>
		</g>
		<g>
			
				<rect x="207.42" y="216.145" transform="matrix(0.9021 0.4315 -0.4315 0.9021 113.8176 -68.4788)" style="fill:#EFDFDF;" width="0.805" height="0.894"/>
		</g>
		<g>
			
				<rect x="246.126" y="233.331" transform="matrix(0.9023 0.4311 -0.4311 0.9023 124.9184 -83.4688)" style="fill:#EFDFDF;" width="0.999" height="1.111"/>
		</g>
		<g>
			
				<rect x="213.659" y="235.633" transform="matrix(0.9022 0.4312 -0.4312 0.9022 122.9359 -69.344)" style="fill:#EFDFDF;" width="1.492" height="1.658"/>
		</g>
		<g>
			
				<rect x="261.03" y="207.965" transform="matrix(0.4275 0.904 -0.904 0.4275 338.3633 -117.0672)" style="fill:#EFDFDF;" width="1.153" height="1.281"/>
		</g>
		<g>
			
				<rect x="313.205" y="234.195" transform="matrix(0.4275 0.904 -0.904 0.4275 391.9471 -149.2176)" style="fill:#EFDFDF;" width="1.153" height="1.281"/>
		</g>
		<g>
			
				<rect x="218.429" y="172.195" transform="matrix(0.9022 0.4314 -0.4314 0.9022 96.0743 -77.6175)" style="fill:#EFDFDF;" width="1.492" height="1.658"/>
		</g>
		<g>
			
				<rect x="219.838" y="204.528" transform="matrix(0.9022 0.4314 -0.4314 0.9022 110.1592 -75.0627)" style="fill:#EFDFDF;" width="1.492" height="1.658"/>
		</g>
		<g>
			<polygon style="fill:#EFDFDF;" points="239.486,179.384 239.173,178.156 237.977,178.424 238.29,179.652 			"/>
		</g>
		<g>
			<polygon style="fill:#EFDFDF;" points="218.76,179.715 218.447,178.487 217.25,178.755 217.563,179.984 			"/>
		</g>
		<g>
			<polygon style="fill:#EFDFDF;" points="278.203,184.192 277.89,182.964 276.694,183.232 277.006,184.461 			"/>
		</g>
		<g>
			<polygon style="fill:#EFDFDF;" points="312.292,212.978 311.979,211.75 310.782,212.018 311.095,213.247 			"/>
		</g>
	</g>
	<path style="fill:#3F7099;" d="M98.182,196.652l-7.244-6.96c0,0,5.255,3.125,8.238,3.409c2.983,0.284,16.334-2.699,16.334-2.699
		l-11.363,5.682L98.182,196.652z"/>
	<path style="fill:#662828;" d="M145.284,85.296l-6.337-1.471c0,0,0.566-1.584,1.415-1.924c0.849-0.34,4.357,0.736,4.922,1.245
		C145.85,83.655,145.284,85.296,145.284,85.296z"/>
	<path style="fill:#662828;" d="M155.17,87.639l-6.281-1.458c0,0,0.561-1.57,1.402-1.907c0.841-0.336,4.318,0.729,4.879,1.234
		C155.731,86.013,155.17,87.639,155.17,87.639z"/>
	<path style="fill:#3F3335;" d="M152.773,92.14c0.199-0.86-0.085-1.66-0.634-1.787c-0.549-0.127-1.156,0.467-1.355,1.326
		c-0.199,0.86,0.085,1.66,0.634,1.787S152.574,93,152.773,92.14z"/>
	<path style="fill:#3F3335;" d="M143.257,89.796c0.199-0.86-0.085-1.66-0.634-1.787c-0.549-0.127-1.156,0.467-1.355,1.326
		c-0.199,0.86,0.085,1.66,0.634,1.787C142.451,91.25,143.057,90.656,143.257,89.796z"/>
	<polygon style="fill:#513F46;" points="187.097,141.826 207.834,161.995 195.619,174.637 197.04,175.489 209.539,161.853 	"/>
	<path style="fill:#F2A446;" d="M121.145,122.841c0.972,0,1.933-0.025,2.881-0.07c-3.39-8.209-6.901-16.433-7.854-17.678
		c-4.069-5.309-12.069,2.143-16,9.463c-0.495,0.921-0.797,2.112-0.924,3.515C104.709,121.004,112.496,122.841,121.145,122.841z"/>
	<g>
		<path style="fill:#513F46;" d="M187.985,145.093c0-0.961-0.779-1.74-1.74-1.74c-0.961,0-1.74,0.779-1.74,1.74
			c0,0.961,0.779,1.74,1.74,1.74C187.206,146.833,187.985,146.054,187.985,145.093z"/>
		<circle style="fill:#513F46;" cx="189.441" cy="148.076" r="1.42"/>
		<path style="fill:#F2A446;" d="M190.328,148.076c0-0.49-0.397-0.888-0.888-0.888c-0.49,0-0.888,0.397-0.888,0.888
			c0,0.49,0.397,0.888,0.888,0.888C189.931,148.964,190.328,148.566,190.328,148.076z"/>
	</g>
	<g>
		<polygon style="fill:#513F46;" points="200.918,165.229 199.69,164.054 192.886,171.194 194.113,172.368 		"/>
		<polygon style="fill:#513F46;" points="198.551,162.956 197.323,161.781 190.518,168.921 191.746,170.096 		"/>
		<polygon style="fill:#513F46;" points="196.183,160.683 194.956,159.509 188.151,166.649 189.379,167.823 		"/>
		<polygon style="fill:#513F46;" points="193.816,158.411 192.589,157.236 185.784,164.376 187.011,165.551 		"/>
	</g>
	<g>
		<path style="fill:#73469B;" d="M391.222,216.574c-1.057-8.706-5.822-15.25-10.644-14.616c-4.822,0.634-7.875,8.206-6.818,16.912
			c1.057,8.706,5.822,15.25,10.644,14.616C389.226,232.852,392.279,225.28,391.222,216.574z"/>
		<path style="fill:#915CB7;" d="M390.495,216.061c-0.831-6.849-4.58-11.996-8.373-11.497c-3.793,0.499-6.195,6.455-5.364,13.303
			c0.831,6.849,4.58,11.996,8.373,11.497C388.924,228.866,391.326,222.91,390.495,216.061z"/>
		<path style="fill:#73469B;" d="M193.507,216.574c-1.057-8.706-5.822-15.25-10.644-14.616c-4.822,0.634-7.875,8.206-6.818,16.912
			c1.057,8.706,5.822,15.25,10.644,14.616C191.511,232.852,194.564,225.28,193.507,216.574z"/>
		<path style="fill:#915CB7;" d="M192.78,216.061c-0.831-6.849-4.58-11.996-8.373-11.497c-3.793,0.499-6.195,6.455-5.364,13.303
			c0.831,6.849,4.58,11.996,8.373,11.497C191.209,228.866,193.611,222.91,192.78,216.061z"/>
	</g>
	<path style="fill:#EDE1D6;" d="M422.026,209.578l8.948,0.994c0,0-0.284,9.09-3.267,9.516
		C424.724,220.514,422.026,209.578,422.026,209.578z"/>
	<path style="fill:#3F3335;" d="M143.65,101.677l-6.098-3.672c0,0-2.313,1.522-1.205,3.523c1.153,2.083,4.493,2.422,4.493,2.422
		L143.65,101.677z"/>
	<path style="fill:#F4EDE4;" d="M141.29,102.898l1.711-1.384l-5.43-3.27c0,0-0.992,0.654-1.268,1.651L141.29,102.898z"/>
</g>
</svg>
